<mxfile host="app.diagrams.net" modified="2020-08-13T03:48:47.939Z" agent="5.0 (Macintosh; Intel Mac OS X 10_15_3) AppleWebKit/537.36 (KHTML, like Gecko) Chrome/84.0.4147.125 Safari/537.36" etag="-Wp79rvizti__L04BanL" version="13.6.2" type="github">
  <diagram id="wmyFTfAndpe8EUMg5puC" name="Page-1">
    <mxGraphModel dx="3258" dy="1232" grid="1" gridSize="10" guides="1" tooltips="1" connect="1" arrows="1" fold="1" page="1" pageScale="1" pageWidth="827" pageHeight="1169" math="0" shadow="0">
      <root>
        <mxCell id="0" />
        <mxCell id="1" parent="0" />
        <mxCell id="g9awD4k1l3ApskGEUnB0-6" style="edgeStyle=orthogonalEdgeStyle;rounded=0;orthogonalLoop=1;jettySize=auto;html=1;exitX=0.855;exitY=0.145;exitDx=0;exitDy=0;exitPerimeter=0;entryX=0;entryY=0.5;entryDx=0;entryDy=0;" edge="1" parent="1" source="g9awD4k1l3ApskGEUnB0-1" target="g9awD4k1l3ApskGEUnB0-2">
          <mxGeometry relative="1" as="geometry" />
        </mxCell>
        <mxCell id="g9awD4k1l3ApskGEUnB0-7" style="edgeStyle=orthogonalEdgeStyle;rounded=0;orthogonalLoop=1;jettySize=auto;html=1;exitX=1;exitY=0.5;exitDx=0;exitDy=0;exitPerimeter=0;entryX=0.008;entryY=0.383;entryDx=0;entryDy=0;entryPerimeter=0;" edge="1" parent="1" source="g9awD4k1l3ApskGEUnB0-1" target="g9awD4k1l3ApskGEUnB0-3">
          <mxGeometry relative="1" as="geometry" />
        </mxCell>
        <mxCell id="g9awD4k1l3ApskGEUnB0-11" style="edgeStyle=orthogonalEdgeStyle;rounded=0;orthogonalLoop=1;jettySize=auto;html=1;exitX=0.145;exitY=0.855;exitDx=0;exitDy=0;exitPerimeter=0;entryX=1;entryY=0.5;entryDx=0;entryDy=0;" edge="1" parent="1" source="g9awD4k1l3ApskGEUnB0-1" target="g9awD4k1l3ApskGEUnB0-4">
          <mxGeometry relative="1" as="geometry" />
        </mxCell>
        <mxCell id="g9awD4k1l3ApskGEUnB0-52" style="edgeStyle=orthogonalEdgeStyle;rounded=0;orthogonalLoop=1;jettySize=auto;html=1;exitX=0.5;exitY=1;exitDx=0;exitDy=0;exitPerimeter=0;entryX=0.5;entryY=0;entryDx=0;entryDy=0;" edge="1" parent="1" source="g9awD4k1l3ApskGEUnB0-1" target="g9awD4k1l3ApskGEUnB0-5">
          <mxGeometry relative="1" as="geometry" />
        </mxCell>
        <mxCell id="g9awD4k1l3ApskGEUnB0-1" value="export" style="strokeWidth=2;html=1;shape=mxgraph.flowchart.start_1;whiteSpace=wrap;" vertex="1" parent="1">
          <mxGeometry x="-60" y="390" width="100" height="60" as="geometry" />
        </mxCell>
        <mxCell id="g9awD4k1l3ApskGEUnB0-2" value="component" style="rounded=1;whiteSpace=wrap;html=1;" vertex="1" parent="1">
          <mxGeometry x="-110" y="100" width="120" height="60" as="geometry" />
        </mxCell>
        <mxCell id="g9awD4k1l3ApskGEUnB0-3" value="creatElement" style="rounded=1;whiteSpace=wrap;html=1;" vertex="1" parent="1">
          <mxGeometry x="180" y="390" width="120" height="60" as="geometry" />
        </mxCell>
        <mxCell id="g9awD4k1l3ApskGEUnB0-17" style="edgeStyle=orthogonalEdgeStyle;rounded=0;orthogonalLoop=1;jettySize=auto;html=1;exitX=0;exitY=0.5;exitDx=0;exitDy=0;" edge="1" parent="1" source="g9awD4k1l3ApskGEUnB0-4" target="g9awD4k1l3ApskGEUnB0-16">
          <mxGeometry relative="1" as="geometry" />
        </mxCell>
        <mxCell id="g9awD4k1l3ApskGEUnB0-4" value="render" style="rounded=1;whiteSpace=wrap;html=1;" vertex="1" parent="1">
          <mxGeometry x="-330" y="410" width="120" height="60" as="geometry" />
        </mxCell>
        <mxCell id="g9awD4k1l3ApskGEUnB0-53" style="edgeStyle=orthogonalEdgeStyle;rounded=0;orthogonalLoop=1;jettySize=auto;html=1;exitX=0.5;exitY=1;exitDx=0;exitDy=0;entryX=0.5;entryY=0;entryDx=0;entryDy=0;" edge="1" parent="1" source="g9awD4k1l3ApskGEUnB0-5" target="g9awD4k1l3ApskGEUnB0-50">
          <mxGeometry relative="1" as="geometry" />
        </mxCell>
        <mxCell id="g9awD4k1l3ApskGEUnB0-5" value="unMountComponentAtNode" style="rounded=1;whiteSpace=wrap;html=1;" vertex="1" parent="1">
          <mxGeometry x="-103" y="525" width="186" height="60" as="geometry" />
        </mxCell>
        <mxCell id="g9awD4k1l3ApskGEUnB0-24" style="edgeStyle=orthogonalEdgeStyle;rounded=0;orthogonalLoop=1;jettySize=auto;html=1;exitX=0.5;exitY=1;exitDx=0;exitDy=0;entryX=0.5;entryY=0;entryDx=0;entryDy=0;" edge="1" parent="1" source="g9awD4k1l3ApskGEUnB0-12" target="g9awD4k1l3ApskGEUnB0-21">
          <mxGeometry relative="1" as="geometry" />
        </mxCell>
        <mxCell id="g9awD4k1l3ApskGEUnB0-12" value="mount" style="rounded=1;whiteSpace=wrap;html=1;" vertex="1" parent="1">
          <mxGeometry x="-560" y="590" width="120" height="60" as="geometry" />
        </mxCell>
        <mxCell id="g9awD4k1l3ApskGEUnB0-42" style="edgeStyle=orthogonalEdgeStyle;rounded=0;orthogonalLoop=1;jettySize=auto;html=1;exitX=0.5;exitY=0;exitDx=0;exitDy=0;entryX=0.5;entryY=1;entryDx=0;entryDy=0;" edge="1" parent="1" source="g9awD4k1l3ApskGEUnB0-13" target="g9awD4k1l3ApskGEUnB0-39">
          <mxGeometry relative="1" as="geometry" />
        </mxCell>
        <mxCell id="g9awD4k1l3ApskGEUnB0-13" value="update" style="rounded=1;whiteSpace=wrap;html=1;" vertex="1" parent="1">
          <mxGeometry x="-560" y="320" width="120" height="60" as="geometry" />
        </mxCell>
        <mxCell id="g9awD4k1l3ApskGEUnB0-18" style="edgeStyle=orthogonalEdgeStyle;rounded=0;orthogonalLoop=1;jettySize=auto;html=1;exitX=0.5;exitY=0;exitDx=0;exitDy=0;exitPerimeter=0;entryX=0.5;entryY=1;entryDx=0;entryDy=0;" edge="1" parent="1" source="g9awD4k1l3ApskGEUnB0-16" target="g9awD4k1l3ApskGEUnB0-13">
          <mxGeometry relative="1" as="geometry" />
        </mxCell>
        <mxCell id="g9awD4k1l3ApskGEUnB0-29" value="yes" style="edgeLabel;html=1;align=center;verticalAlign=middle;resizable=0;points=[];" vertex="1" connectable="0" parent="g9awD4k1l3ApskGEUnB0-18">
          <mxGeometry x="0.0545" relative="1" as="geometry">
            <mxPoint as="offset" />
          </mxGeometry>
        </mxCell>
        <mxCell id="g9awD4k1l3ApskGEUnB0-19" style="edgeStyle=orthogonalEdgeStyle;rounded=0;orthogonalLoop=1;jettySize=auto;html=1;exitX=0.5;exitY=1;exitDx=0;exitDy=0;exitPerimeter=0;entryX=0.5;entryY=0;entryDx=0;entryDy=0;" edge="1" parent="1" source="g9awD4k1l3ApskGEUnB0-16" target="g9awD4k1l3ApskGEUnB0-12">
          <mxGeometry relative="1" as="geometry" />
        </mxCell>
        <mxCell id="g9awD4k1l3ApskGEUnB0-28" value="no" style="edgeLabel;html=1;align=center;verticalAlign=middle;resizable=0;points=[];" vertex="1" connectable="0" parent="g9awD4k1l3ApskGEUnB0-19">
          <mxGeometry x="-0.2" y="1" relative="1" as="geometry">
            <mxPoint as="offset" />
          </mxGeometry>
        </mxCell>
        <mxCell id="g9awD4k1l3ApskGEUnB0-16" value="has render" style="strokeWidth=2;html=1;shape=mxgraph.flowchart.decision;whiteSpace=wrap;" vertex="1" parent="1">
          <mxGeometry x="-550" y="445" width="100" height="70" as="geometry" />
        </mxCell>
        <mxCell id="g9awD4k1l3ApskGEUnB0-27" style="edgeStyle=orthogonalEdgeStyle;rounded=0;orthogonalLoop=1;jettySize=auto;html=1;exitX=0.5;exitY=1;exitDx=0;exitDy=0;entryX=0.5;entryY=0;entryDx=0;entryDy=0;" edge="1" parent="1" source="g9awD4k1l3ApskGEUnB0-20" target="g9awD4k1l3ApskGEUnB0-26">
          <mxGeometry relative="1" as="geometry" />
        </mxCell>
        <mxCell id="g9awD4k1l3ApskGEUnB0-37" style="edgeStyle=orthogonalEdgeStyle;rounded=0;orthogonalLoop=1;jettySize=auto;html=1;exitX=1;exitY=0.5;exitDx=0;exitDy=0;fillColor=#f8cecc;strokeColor=#b85450;" edge="1" parent="1" source="g9awD4k1l3ApskGEUnB0-20" target="g9awD4k1l3ApskGEUnB0-35">
          <mxGeometry relative="1" as="geometry" />
        </mxCell>
        <mxCell id="g9awD4k1l3ApskGEUnB0-20" value="reconciler.mountcomponent" style="rounded=1;whiteSpace=wrap;html=1;" vertex="1" parent="1">
          <mxGeometry x="-588" y="760" width="180" height="60" as="geometry" />
        </mxCell>
        <mxCell id="g9awD4k1l3ApskGEUnB0-25" style="edgeStyle=orthogonalEdgeStyle;rounded=0;orthogonalLoop=1;jettySize=auto;html=1;exitX=0.5;exitY=1;exitDx=0;exitDy=0;entryX=0.5;entryY=0;entryDx=0;entryDy=0;" edge="1" parent="1" source="g9awD4k1l3ApskGEUnB0-21" target="g9awD4k1l3ApskGEUnB0-20">
          <mxGeometry relative="1" as="geometry" />
        </mxCell>
        <mxCell id="g9awD4k1l3ApskGEUnB0-33" style="edgeStyle=orthogonalEdgeStyle;rounded=0;orthogonalLoop=1;jettySize=auto;html=1;exitX=1;exitY=0.5;exitDx=0;exitDy=0;entryX=0;entryY=0.5;entryDx=0;entryDy=0;fillColor=#f8cecc;strokeColor=#b85450;" edge="1" parent="1" source="g9awD4k1l3ApskGEUnB0-21" target="g9awD4k1l3ApskGEUnB0-30">
          <mxGeometry relative="1" as="geometry" />
        </mxCell>
        <mxCell id="g9awD4k1l3ApskGEUnB0-21" value="instantiateComponent" style="rounded=1;whiteSpace=wrap;html=1;" vertex="1" parent="1">
          <mxGeometry x="-583" y="670" width="170" height="60" as="geometry" />
        </mxCell>
        <mxCell id="g9awD4k1l3ApskGEUnB0-26" value="dom.appendchild" style="rounded=1;whiteSpace=wrap;html=1;" vertex="1" parent="1">
          <mxGeometry x="-558" y="860" width="120" height="60" as="geometry" />
        </mxCell>
        <mxCell id="g9awD4k1l3ApskGEUnB0-34" style="edgeStyle=orthogonalEdgeStyle;rounded=0;orthogonalLoop=1;jettySize=auto;html=1;exitX=0.5;exitY=1;exitDx=0;exitDy=0;entryX=1;entryY=0.25;entryDx=0;entryDy=0;fillColor=#f8cecc;strokeColor=#b85450;" edge="1" parent="1" source="g9awD4k1l3ApskGEUnB0-30" target="g9awD4k1l3ApskGEUnB0-20">
          <mxGeometry relative="1" as="geometry" />
        </mxCell>
        <mxCell id="g9awD4k1l3ApskGEUnB0-30" value="component" style="text;html=1;strokeColor=none;fillColor=none;align=center;verticalAlign=middle;whiteSpace=wrap;rounded=0;" vertex="1" parent="1">
          <mxGeometry x="-320" y="690" width="80" height="20" as="geometry" />
        </mxCell>
        <mxCell id="g9awD4k1l3ApskGEUnB0-38" style="edgeStyle=orthogonalEdgeStyle;rounded=0;orthogonalLoop=1;jettySize=auto;html=1;exitX=0.5;exitY=1;exitDx=0;exitDy=0;entryX=1;entryY=0.5;entryDx=0;entryDy=0;fillColor=#f8cecc;strokeColor=#b85450;" edge="1" parent="1" source="g9awD4k1l3ApskGEUnB0-35" target="g9awD4k1l3ApskGEUnB0-26">
          <mxGeometry relative="1" as="geometry" />
        </mxCell>
        <mxCell id="g9awD4k1l3ApskGEUnB0-35" value="renderNode" style="text;html=1;strokeColor=none;fillColor=none;align=center;verticalAlign=middle;whiteSpace=wrap;rounded=0;" vertex="1" parent="1">
          <mxGeometry x="-325" y="780" width="90" height="20" as="geometry" />
        </mxCell>
        <mxCell id="g9awD4k1l3ApskGEUnB0-41" style="edgeStyle=orthogonalEdgeStyle;rounded=0;orthogonalLoop=1;jettySize=auto;html=1;exitX=0.5;exitY=0;exitDx=0;exitDy=0;entryX=0.5;entryY=1;entryDx=0;entryDy=0;" edge="1" parent="1" source="g9awD4k1l3ApskGEUnB0-39" target="g9awD4k1l3ApskGEUnB0-40">
          <mxGeometry relative="1" as="geometry" />
        </mxCell>
        <mxCell id="g9awD4k1l3ApskGEUnB0-44" value="yes" style="edgeLabel;html=1;align=center;verticalAlign=middle;resizable=0;points=[];" vertex="1" connectable="0" parent="g9awD4k1l3ApskGEUnB0-41">
          <mxGeometry x="-0.05" relative="1" as="geometry">
            <mxPoint as="offset" />
          </mxGeometry>
        </mxCell>
        <mxCell id="g9awD4k1l3ApskGEUnB0-47" style="edgeStyle=orthogonalEdgeStyle;rounded=0;orthogonalLoop=1;jettySize=auto;html=1;exitX=0;exitY=0.5;exitDx=0;exitDy=0;entryX=0.5;entryY=0;entryDx=0;entryDy=0;" edge="1" parent="1" source="g9awD4k1l3ApskGEUnB0-39" target="g9awD4k1l3ApskGEUnB0-46">
          <mxGeometry relative="1" as="geometry" />
        </mxCell>
        <mxCell id="g9awD4k1l3ApskGEUnB0-49" value="no" style="edgeLabel;html=1;align=center;verticalAlign=middle;resizable=0;points=[];" vertex="1" connectable="0" parent="g9awD4k1l3ApskGEUnB0-47">
          <mxGeometry x="0.0899" y="-1" relative="1" as="geometry">
            <mxPoint as="offset" />
          </mxGeometry>
        </mxCell>
        <mxCell id="g9awD4k1l3ApskGEUnB0-39" value="shouldUpdataComponent" style="rhombus;whiteSpace=wrap;html=1;" vertex="1" parent="1">
          <mxGeometry x="-593.5" y="200" width="187" height="80" as="geometry" />
        </mxCell>
        <mxCell id="g9awD4k1l3ApskGEUnB0-40" value="update" style="rounded=1;whiteSpace=wrap;html=1;" vertex="1" parent="1">
          <mxGeometry x="-558" y="100" width="120" height="60" as="geometry" />
        </mxCell>
        <mxCell id="g9awD4k1l3ApskGEUnB0-48" style="edgeStyle=orthogonalEdgeStyle;rounded=0;orthogonalLoop=1;jettySize=auto;html=1;exitX=1;exitY=0.5;exitDx=0;exitDy=0;" edge="1" parent="1" source="g9awD4k1l3ApskGEUnB0-46" target="g9awD4k1l3ApskGEUnB0-12">
          <mxGeometry relative="1" as="geometry" />
        </mxCell>
        <mxCell id="g9awD4k1l3ApskGEUnB0-46" value="&lt;span&gt;unMountComponentAtNode&lt;/span&gt;" style="rounded=1;whiteSpace=wrap;html=1;" vertex="1" parent="1">
          <mxGeometry x="-780" y="590" width="180" height="60" as="geometry" />
        </mxCell>
        <mxCell id="g9awD4k1l3ApskGEUnB0-54" style="edgeStyle=orthogonalEdgeStyle;rounded=0;orthogonalLoop=1;jettySize=auto;html=1;exitX=0.5;exitY=1;exitDx=0;exitDy=0;entryX=0.5;entryY=0;entryDx=0;entryDy=0;" edge="1" parent="1" source="g9awD4k1l3ApskGEUnB0-50" target="g9awD4k1l3ApskGEUnB0-51">
          <mxGeometry relative="1" as="geometry" />
        </mxCell>
        <mxCell id="g9awD4k1l3ApskGEUnB0-50" value="recinciler.unmountComponent" style="rounded=1;whiteSpace=wrap;html=1;" vertex="1" parent="1">
          <mxGeometry x="-110" y="650" width="200" height="60" as="geometry" />
        </mxCell>
        <mxCell id="g9awD4k1l3ApskGEUnB0-51" value="dom.empty" style="rounded=1;whiteSpace=wrap;html=1;" vertex="1" parent="1">
          <mxGeometry x="-70" y="760" width="120" height="60" as="geometry" />
        </mxCell>
        <mxCell id="g9awD4k1l3ApskGEUnB0-55" value="construct" style="rounded=1;whiteSpace=wrap;html=1;" vertex="1" parent="1">
          <mxGeometry x="120" y="30" width="120" height="60" as="geometry" />
        </mxCell>
        <mxCell id="g9awD4k1l3ApskGEUnB0-56" value="props&lt;br&gt;currentElement&lt;br&gt;peddingstate&lt;br&gt;renderedComponent&lt;br&gt;renderedNode&lt;br&gt;" style="rounded=1;whiteSpace=wrap;html=1;" vertex="1" parent="1">
          <mxGeometry x="300" y="20" width="120" height="80" as="geometry" />
        </mxCell>
      </root>
    </mxGraphModel>
  </diagram>
</mxfile>
